<?xml version="1.0" encoding="utf-8"?>
<!-- Generator: Adobe Illustrator 19.1.0, SVG Export Plug-In . SVG Version: 6.00 Build 0)  -->
<!DOCTYPE svg PUBLIC "-//W3C//DTD SVG 1.1//EN" "http://www.w3.org/Graphics/SVG/1.1/DTD/svg11.dtd">
<svg version="1.1" id="Layer_1" xmlns:sketch="http://www.bohemiancoding.com/sketch/ns"
	 xmlns="http://www.w3.org/2000/svg" xmlns:xlink="http://www.w3.org/1999/xlink" x="0px" y="0px" viewBox="-119 120 121 122"
	 style="enable-background:new -119 120 121 122;" xml:space="preserve">
<style type="text/css">
	.st0{fill:#168DCD;}
</style>
<title>chart_bar_1</title>
<description>Created with Sketch (http://www.bohemiancoding.com/sketch)</description>
<g sketch:type="MSPage">
	<path sketch:type="MSShapeGroup" class="st0" d="M-14,228h-93v-1.5V135l0,0h-2l3-5l3,5h-2v91h91v-2l5,3l-5,3V228L-14,228z M-82,170
		c-0.6,0-1,0.5-1,1v52c0,0.6,0.5,1,1,1h15c0.6,0,1-0.5,1-1v-52c0-0.6-0.5-1-1-1H-82z M-62,150c-0.6,0-1,0.5-1,1v72c0,0.5,0.5,1,1,1
		h15c0.6,0,1-0.5,1-1v-72c0-0.5-0.5-1-1-1H-62z M-42,160c-0.6,0-1,0.4-1,1v62c0,0.6,0.5,1,1,1h15c0.6,0,1-0.4,1-1v-62
		c0-0.6-0.5-1-1-1H-42z M-102,187c-0.6,0-1,0.4-1,1v35c0,0.6,0.5,1,1,1h15c0.6,0,1-0.4,1-1v-35c0-0.6-0.5-1-1-1H-102z"/>
</g>
</svg>
